<svg width="375" height="232" xmlns="http://www.w3.org/2000/svg" stroke="null">
 <g stroke="null">
  <title stroke="null">background</title>
  <rect stroke="null" x="-1" y="-1" width="377" height="234" id="canvas_background" fill="none"/>
 </g>

 <g stroke="null">
  <title transform="translate(2,8) " stroke="null">Layer 1</title>
  <g stroke="null" id="svg_1">
   <g stroke="null" id="svg_8">
    <path stroke="null" d="m373.138492,209.560111c0,10.07708 -9.467502,18.246569 -21.145691,18.246569l-328.985615,0c-11.678188,0 -21.145691,-8.169488 -21.145691,-18.246569l0,-187.12354c0,-10.07708 9.467502,-18.246569 21.145691,-18.246569l328.985615,0c11.678188,0 21.145691,8.169488 21.145691,18.246569l0,187.12354l0,0z" fill="#E2E5E7" id="svg_9"/>
    <g stroke="null" id="svg_10">
     <path stroke="null" d="m342.618533,165.688724c0,2.03034 -2.605726,3.677512 -5.820832,3.677512l-114.376079,0c-3.215106,0 -5.820832,-1.646342 -5.820832,-3.677512l0,-0.139341c0,-2.028689 2.605726,-3.675022 5.820832,-3.675022l114.376079,0c3.215106,0 5.820832,1.645503 5.820832,3.675022l0,0.139341z" fill="#D1D5D5" id="svg_11"/>
     <path stroke="null" d="m342.618533,179.798297c0,2.032 -2.605726,3.677512 -5.820832,3.677512l-114.376079,0c-3.215106,0 -5.820832,-1.644682 -5.820832,-3.677512l0,-0.136851c0,-2.031179 2.605726,-3.677512 5.820832,-3.677512l114.376079,0c3.215106,0 5.820832,1.645503 5.820832,3.677512l0,0.136851z" fill="#D1D5D5" id="svg_12"/>
     <path stroke="null" d="m342.618533,193.91119c0,2.02951 -2.605726,3.675022 -5.820832,3.675022l-114.376079,0c-3.215106,0 -5.820832,-1.644682 -5.820832,-3.675022l0,-0.138511c0,-2.032009 2.605726,-3.678342 5.820832,-3.678342l114.376079,0c3.215106,0 5.820832,1.645512 5.820832,3.678342l0,0.138511z" fill="#D1D5D5" id="svg_13"/>
    </g>
    <g stroke="null" id="svg_14">
     <g stroke="null" id="svg_15">
      <g stroke="null" id="svg_16">
       <g stroke="null" id="svg_17">
        <g stroke="null" id="svg_18">
         <polygon stroke="null" points="91.94213104248047,4.190004348754883 77.79181671142578,14.972070693969727 100.2552719116211,14.972070693969727 114.40365600585938,4.190004348754883 " fill="#DF584C" id="svg_19"/>
         <polygon stroke="null" points="69.4806137084961,4.190004348754883 55.332218170166016,14.972070693969727 77.79181671142578,14.972070693969727 91.94213104248047,4.190004348754883 " fill="#E2E5E7" id="svg_20"/>
         <polygon stroke="null" points="114.40365600585938,4.190004348754883 100.2552719116211,14.972070693969727 122.7158432006836,14.972070693969727 136.8651885986328,4.190004348754883 " fill="#E2E5E7" id="svg_21"/>
         <polygon stroke="null" points="159.3267059326172,4.190004348754883 145.17831420898438,14.972070693969727 167.63890075683594,14.972070693969727 181.78729248046875,4.190004348754883 " fill="#E2E5E7" id="svg_22"/>
         <polygon stroke="null" points="1.8614959716796875,4.190004348754883 1.8614959716796875,14.972070693969727 10.409157752990723,14.972070693969727 24.557546615600586,4.190004348754883 " fill="#DF584C" id="svg_23"/>
         <polygon stroke="null" points="24.557546615600586,4.190004348754883 10.409157752990723,14.972070693969727 32.870697021484375,14.972070693969727 47.01908874511719,4.190004348754883 " fill="#E2E5E7" id="svg_24"/>
         <polygon stroke="null" points="294.094970703125,4.190004348754883 279.9465637207031,14.972070693969727 302.4100341796875,14.972070693969727 316.5555419921875,4.190004348754883 " fill="#E2E5E7" id="svg_25"/>
         <polygon stroke="null" points="339.01800537109375,4.190004348754883 324.86962890625,14.972070693969727 347.33111572265625,14.972070693969727 361.48046875,4.190004348754883 " fill="#E2E5E7" id="svg_26"/>
         <polygon stroke="null" points="181.78729248046875,4.190004348754883 167.63890075683594,14.972070693969727 190.1004180908203,14.972070693969727 204.24977111816406,4.190004348754883 " fill="#DF584C" id="svg_27"/>
         <polygon stroke="null" points="361.48046875,4.190004348754883 347.33111572265625,14.972070693969727 373.13848876953125,14.972070693969727 373.13848876953125,4.190004348754883 " fill="#DF584C" id="svg_28"/>
         <polygon stroke="null" points="271.6334228515625,4.190004348754883 257.48504638671875,14.972070693969727 279.9465637207031,14.972070693969727 294.094970703125,4.190004348754883 " fill="#DF584C" id="svg_29"/>
         <polygon stroke="null" points="204.24977111816406,4.190004348754883 190.1004180908203,14.972070693969727 212.5629119873047,14.972070693969727 226.71224975585938,4.190004348754883 " fill="#E2E5E7" id="svg_30"/>
         <g stroke="null" id="svg_31">
          <polygon stroke="null" points="136.8651885986328,4.190004348754883 122.7158432006836,14.972070693969727 145.17831420898438,14.972070693969727 159.3267059326172,4.190004348754883 " fill="#2D404E" id="svg_32"/>
          <polygon stroke="null" points="47.01908874511719,4.190004348754883 32.870697021484375,14.972070693969727 55.332218170166016,14.972070693969727 69.4806137084961,4.190004348754883 " fill="#2D404E" id="svg_33"/>
          <polygon stroke="null" points="316.5555419921875,4.190004348754883 302.4100341796875,14.972070693969727 324.86962890625,14.972070693969727 339.01800537109375,4.190004348754883 " fill="#2D404E" id="svg_34"/>
          <polygon stroke="null" points="226.71224975585938,4.190004348754883 212.5629119873047,14.972070693969727 235.02346801757812,14.972070693969727 249.17189025878906,4.190004348754883 " fill="#2D404E" id="svg_35"/>
         </g>
         <polygon stroke="null" points="249.17189025878906,4.190004348754883 235.02346801757812,14.972070693969727 257.48504638671875,14.972070693969727 271.6334228515625,4.190004348754883 " fill="#E2E5E7" id="svg_36"/>
        </g>
        <g stroke="null" id="svg_37">
         <polygon stroke="null" points="14.356684684753418,188.98626708984375 1.8614959716796875,198.28541564941406 1.8614959716796875,183.52304077148438 14.356684684753418,174.22479248046875 " fill="#DF584C" id="svg_38"/>
         <polygon stroke="null" points="14.356684684753418,203.74771118164062 1.8614959716796875,213.04603576660156 1.8614959716796875,198.28541564941406 14.356684684753418,188.98626708984375 " fill="#E2E5E7" id="svg_39"/>
         <polygon stroke="null" points="14.356684684753418,174.22479248046875 1.8614959716796875,183.52304077148438 1.8614959716796875,168.76243591308594 14.356684684753418,159.46414184570312 " fill="#E2E5E7" id="svg_40"/>
         <polygon stroke="null" points="14.356684684753418,144.70266723632812 1.8614959716796875,154.00094604492188 1.8614959716796875,139.24032592773438 14.356684684753418,129.94203186035156 " fill="#E2E5E7" id="svg_41"/>
         <polygon stroke="null" points="14.356684684753418,56.13467788696289 1.8614959716796875,65.43296813964844 1.8614959716796875,50.67148208618164 14.356684684753418,41.373191833496094 " fill="#E2E5E7" id="svg_42"/>
         <polygon stroke="null" points="14.356684684753418,26.612548828125 1.8614959716796875,35.910831451416016 1.8614959716796875,21.15019416809082 14.356684684753418,11.851072311401367 " fill="#E2E5E7" id="svg_43"/>
         <polygon stroke="null" points="14.356684684753418,129.94203186035156 1.8614959716796875,139.24032592773438 1.8614959716796875,124.47883605957031 14.356684684753418,115.1805419921875 " fill="#DF584C" id="svg_44"/>
         <polygon stroke="null" points="14.356684684753418,11.851072311401367 1.8614959716796875,21.15019416809082 1.8614959716796875,4.190004348754883 14.356684684753418,4.190004348754883 " fill="#DF584C" id="svg_45"/>
         <polygon stroke="null" points="14.356684684753418,70.89778137207031 1.8614959716796875,80.19440460205078 1.8614959716796875,65.43296813964844 14.356684684753418,56.13467788696289 " fill="#DF584C" id="svg_46"/>
         <polygon stroke="null" points="14.356684684753418,115.1805419921875 1.8614959716796875,124.47883605957031 1.8614959716796875,109.71903228759766 14.356684684753418,100.41907501220703 " fill="#E2E5E7" id="svg_47"/>
         <g stroke="null" id="svg_48">
          <polygon stroke="null" points="14.356684684753418,159.46414184570312 1.8614959716796875,168.76243591308594 1.8614959716796875,154.00094604492188 14.356684684753418,144.70266723632812 " fill="#2D404E" id="svg_49"/>
          <polygon stroke="null" points="14.356684684753418,227.8091278076172 1.8614959716796875,227.80999755859375 1.8614959716796875,213.04603576660156 14.356684684753418,203.74771118164062 " fill="#2D404E" id="svg_50"/>
          <polygon stroke="null" points="14.356684684753418,41.373191833496094 1.8614959716796875,50.67148208618164 1.8614959716796875,35.910831451416016 14.356684684753418,26.612548828125 " fill="#2D404E" id="svg_51"/>
          <polygon stroke="null" points="14.356684684753418,100.41907501220703 1.8614959716796875,109.71903228759766 1.8614959716796875,94.95506286621094 14.356684684753418,85.65843200683594 " fill="#2D404E" id="svg_52"/>
         </g>
         <polygon stroke="null" points="14.356684684753418,85.65843200683594 1.8614959716796875,94.95506286621094 1.8614959716796875,80.19440460205078 14.356684684753418,70.89778137207031 " fill="#E2E5E7" id="svg_53"/>
        </g>
        <g stroke="null" id="svg_54">
         <polygon stroke="null" points="94.95635223388672,227.80670166015625 80.95791625976562,217.0246124267578 103.18010711669922,217.0246124267578 117.1775894165039,227.80670166015625 " fill="#DF584C" id="svg_55"/>
         <polygon stroke="null" points="72.7351303100586,227.80670166015625 58.73859786987305,217.0246124267578 80.95791625976562,217.0246124267578 94.95635223388672,227.80670166015625 " fill="#E2E5E7" id="svg_56"/>
         <polygon stroke="null" points="117.1775894165039,227.80670166015625 103.18010711669922,217.0246124267578 125.40038299560547,217.0246124267578 139.3978729248047,227.80670166015625 " fill="#E2E5E7" id="svg_57"/>
         <polygon stroke="null" points="161.6190948486328,227.80670166015625 147.6216278076172,217.0246124267578 169.84188842773438,217.0246124267578 183.8384246826172,227.80670166015625 " fill="#E2E5E7" id="svg_58"/>
         <polygon stroke="null" points="1.8614959716796875,227.80670166015625 1.8614959716796875,217.0246124267578 14.297079086303711,217.0246124267578 28.29457664489746,227.80670166015625 " fill="#DF584C" id="svg_59"/>
         <polygon stroke="null" points="294.94268798828125,227.80670166015625 280.9451904296875,217.0246124267578 303.16839599609375,217.0246124267578 317.1619873046875,227.80670166015625 " fill="#E2E5E7" id="svg_60"/>
         <polygon stroke="null" points="339.38421630859375,227.80670166015625 325.3867492675781,217.0246124267578 347.60797119140625,217.0246124267578 361.6044921875,227.80670166015625 " fill="#E2E5E7" id="svg_61"/>
         <polygon stroke="null" points="183.8384246826172,227.80670166015625 169.84188842773438,217.0246124267578 192.06216430664062,217.0246124267578 206.0596466064453,227.80670166015625 " fill="#DF584C" id="svg_62"/>
         <polygon stroke="null" points="361.6044921875,227.80670166015625 347.60797119140625,217.0246124267578 373.13848876953125,217.0246124267578 373.13848876953125,227.80670166015625 " fill="#DF584C" id="svg_63"/>
         <polygon stroke="null" points="272.721435546875,227.80670166015625 258.72491455078125,217.0246124267578 280.9451904296875,217.0246124267578 294.94268798828125,227.80670166015625 " fill="#DF584C" id="svg_64"/>
         <polygon stroke="null" points="206.0596466064453,227.80670166015625 192.06216430664062,217.0246124267578 214.2843475341797,217.0246124267578 228.2808837890625,227.80670166015625 " fill="#E2E5E7" id="svg_65"/>
         <g stroke="null" id="svg_66">
          <polygon stroke="null" points="139.3978729248047,227.80670166015625 125.40038299560547,217.0246124267578 147.6216278076172,217.0246124267578 161.6190948486328,227.80670166015625 " fill="#2D404E" id="svg_67"/>
          <polygon stroke="null" points="50.51485061645508,227.80670166015625 36.51832962036133,217.0246124267578 58.73859786987305,217.0246124267578 72.7351303100586,227.80670166015625 " fill="#2D404E" id="svg_68"/>
          <polygon stroke="null" points="317.1619873046875,227.80670166015625 303.16839599609375,217.0246124267578 325.3867492675781,217.0246124267578 339.38421630859375,227.80670166015625 " fill="#2D404E" id="svg_69"/>
          <polygon stroke="null" points="228.2808837890625,227.80670166015625 214.2843475341797,217.0246124267578 236.503662109375,217.0246124267578 250.5011749267578,227.80670166015625 " fill="#2D404E" id="svg_70"/>
         </g>
         <polygon stroke="null" points="250.5011749267578,227.80670166015625 236.503662109375,217.0246124267578 258.72491455078125,217.0246124267578 272.721435546875,227.80670166015625 " fill="#E2E5E7" id="svg_71"/>
        </g>
        <g stroke="null" id="svg_72">
         <polygon stroke="null" points="360.6433410644531,188.2563934326172 373.13848876953125,197.24781799316406 373.13848876953125,182.97401428222656 360.6433410644531,173.98509216308594 " fill="#DF584C" id="svg_73"/>
         <polygon stroke="null" points="360.6433410644531,202.5277557373047 373.13848876953125,211.51910400390625 373.13848876953125,197.24781799316406 360.6433410644531,188.2563934326172 " fill="#E2E5E7" id="svg_74"/>
         <polygon stroke="null" points="360.6433410644531,173.98509216308594 373.13848876953125,182.97401428222656 373.13848876953125,168.7027130126953 360.6433410644531,159.71212768554688 " fill="#E2E5E7" id="svg_75"/>
         <polygon stroke="null" points="360.6433410644531,145.4391632080078 373.13848876953125,154.43057250976562 373.13848876953125,140.158447265625 360.6433410644531,131.16786193847656 " fill="#E2E5E7" id="svg_76"/>
         <polygon stroke="null" points="360.6433410644531,59.8055419921875 373.13848876953125,68.79612731933594 373.13848876953125,54.52482223510742 360.6433410644531,45.534236907958984 " fill="#E2E5E7" id="svg_77"/>
         <polygon stroke="null" points="360.6433410644531,31.26042938232422 373.13848876953125,40.251041412353516 373.13848876953125,25.97972297668457 360.6433410644531,16.988313674926758 " fill="#E2E5E7" id="svg_78"/>
         <polygon stroke="null" points="360.6433410644531,131.16786193847656 373.13848876953125,140.158447265625 373.13848876953125,125.88383483886719 360.6433410644531,116.8949203491211 " fill="#DF584C" id="svg_79"/>
         <polygon stroke="null" points="360.6433410644531,16.988313674926758 373.13848876953125,25.97972297668457 373.13848876953125,9.581033706665039 360.6433410644531,9.581033706665039 " fill="#DF584C" id="svg_80"/>
         <polygon stroke="null" points="360.6433410644531,74.08016204833984 373.13848876953125,83.06826782226562 373.13848876953125,68.79612731933594 360.6433410644531,59.8055419921875 " fill="#DF584C" id="svg_81"/>
         <polygon stroke="null" points="360.6433410644531,116.8949203491211 373.13848876953125,125.88383483886719 373.13848876953125,111.61419677734375 360.6433410644531,102.62277221679688 " fill="#E2E5E7" id="svg_82"/>
         <g stroke="null" id="svg_83">
          <polygon stroke="null" points="360.6433410644531,159.71212768554688 373.13848876953125,168.7027130126953 373.13848876953125,154.43057250976562 360.6433410644531,145.4391632080078 " fill="#2D404E" id="svg_84"/>
          <polygon stroke="null" points="360.6433410644531,225.7928924560547 373.13848876953125,225.7937774658203 373.13848876953125,211.51910400390625 360.6433410644531,202.5277557373047 " fill="#2D404E" id="svg_85"/>
          <polygon stroke="null" points="360.6433410644531,45.534236907958984 373.13848876953125,54.52482223510742 373.13848876953125,40.251041412353516 360.6433410644531,31.26042938232422 " fill="#2D404E" id="svg_86"/>
          <polygon stroke="null" points="360.6433410644531,102.62277221679688 373.13848876953125,111.61419677734375 373.13848876953125,97.34121704101562 360.6433410644531,88.35227966308594 " fill="#2D404E" id="svg_87"/>
         </g>
         <polygon stroke="null" points="360.6433410644531,88.35227966308594 373.13848876953125,97.34121704101562 373.13848876953125,83.06826782226562 360.6433410644531,74.08016204833984 " fill="#E2E5E7" id="svg_88"/>
        </g>
       </g>
      </g>
     </g>
    </g>
    <path stroke="null" d="m337.171595,85.352397c0,5.201928 -4.901956,9.419381 -10.948662,9.419381l-38.773507,0c-6.046706,0 -10.948662,-4.217453 -10.948662,-9.419381l0,-41.218167c0,-5.201936 4.901956,-9.419381 10.948662,-9.419381l38.773507,0c6.046706,0 10.948662,4.217444 10.948662,9.419381l0,41.218167z" fill="#D1D5D5" id="svg_89"/>
   </g>
   <desc stroke="null" transform="translate(0,0.19000482559204102) translate(-0.1385040283203125,0) translate(2,8) translate(0,-83.19000244140625) translate(-9.715374946594238,0) translate(-9.715374946594238,0) translate(-19.430749893188477,0) translate(-38.86149978637695,0) translate(0,-0.0000024414064228039933) scale(1,0.9497331976890564) translate(0,0.0000024414064228039933) translate(0,-0.000002570623337305733) scale(0.9611677527427673,1) translate(0,0.000002570623337305733) translate(0,-0.0000025706235646794084) scale(1,0.9877859950065613) translate(0,0.0000025706235646794084) "/>
   <g stroke="null" id="svg_126">
    <g stroke="null" id="svg_120" transform="matrix(0.7107122286161712,0,0,0.7002157144030672,-80.8785090881236,-57.354854417961874) ">
     <g stroke="null" id="svg_123">
      <desc stroke="null" transform="translate(0,-5.712519645690918) translate(0,-7.722191333770752) translate(-1.4070392847061157,4.284393787384033) translate(0,0.2713518440723419) translate(-0.19488060474395752,-1.4210854715202004e-14) translate(2.8140785694122314,11.425050735473633) translate(1.4070392847061157,-1.4210854715202004e-14) translate(1.3694062232971191,-1.4210854715202004e-14) translate(0,-1.428131341934204) translate(-1.3694062232971191,-1.4210854715202004e-14) translate(5.477624893188477,-2.856262683868408) translate(0,-107.96451568603516) translate(-12.326112747192383,-1.4210854715202004e-14) translate(-12.326112747192383,-1.4210854715202004e-14) translate(-24.652225494384766,-1.4210854715202004e-14) translate(-49.30445098876953,-1.4210854715202004e-14) "/>
      <path stroke="null" id="svg_124" d="m156.381511,137.173706l128,220.8l128,-220.8l-51.2,0l-76.8,132.48l-77.44,-132.48l-50.56,0z" fill="#41b883" fill-rule="nonzero"/>
     </g>
     <g stroke="null" id="svg_121">
      <desc stroke="null" transform="translate(0,-5.712519645690918) translate(0,-7.722191333770752) translate(-1.4070392847061157,4.284393787384033) translate(0,0.2713518440723419) translate(-0.19488060474395752,-1.4210854715202004e-14) translate(2.8140785694122314,11.425050735473633) translate(1.4070392847061157,-1.4210854715202004e-14) translate(1.3694062232971191,-1.4210854715202004e-14) translate(0,-1.428131341934204) translate(-1.3694062232971191,-1.4210854715202004e-14) translate(5.477624893188477,-2.856262683868408) translate(0,-107.96451568603516) translate(-12.326112747192383,-1.4210854715202004e-14) translate(-12.326112747192383,-1.4210854715202004e-14) translate(-24.652225494384766,-1.4210854715202004e-14) translate(-49.30445098876953,-1.4210854715202004e-14) "/>
      <path stroke="null" id="svg_122" d="m374.289501,293.109706l-88.927,-155.93639l-90.8092,154.32139l55.1887,0.496l34.8115,-59.3553l34.547,59.9783l55.189,0.496z" fill="#35495e" fill-rule="nonzero"/>
     </g>
    </g>
   </g>
  </g>
  <g stroke="null" id="svg_90"/>
  <g stroke="null" id="svg_91"/>
  <g stroke="null" id="svg_92"/>
  <g stroke="null" id="svg_93"/>
  <g stroke="null" id="svg_94"/>
  <g stroke="null" id="svg_95"/>
  <g stroke="null" id="svg_96"/>
  <g stroke="null" id="svg_97"/>
  <g stroke="null" id="svg_98"/>
  <g stroke="null" id="svg_99"/>
  <g stroke="null" id="svg_100"/>
  <g stroke="null" id="svg_101"/>
  <g stroke="null" id="svg_102"/>
  <g stroke="null" id="svg_103"/>
  <g stroke="null" id="svg_104"/>
 </g>
</svg>