<svg width="230" height="232" xmlns="http://www.w3.org/2000/svg">
 <g stroke="null">
  <title>background</title>
  <rect fill="none" id="canvas_background" height="234" width="232" y="-1" x="-1" stroke="null"/>
 </g>

 <g stroke="null">
  <title>Layer 1</title>
  <g stroke="null" id="svg_1">
   <g stroke="null" id="svg_8">
    <path stroke="null" id="svg_9" fill="#E2E5E7" d="m228.638499,209.560112c0,10.07708 -5.795525,18.24657 -12.944323,18.24657l-201.388366,0c-7.148798,0 -12.944329,-8.16949 -12.944329,-18.24657l0,-187.12354c0,-10.07708 5.795531,-18.24657 12.944329,-18.24657l201.388366,0c7.148798,0 12.944323,8.16949 12.944323,18.24657l0,187.12354l0,0z"/>
    <g stroke="null" id="svg_14">
     <g stroke="null" id="svg_15">
      <g stroke="null" id="svg_16">
       <g stroke="null" id="svg_17">
        <g stroke="null" id="svg_18">
         <polygon stroke="null" id="svg_19" fill="#DF584C" points="56.504289865493774,4.190006732940674 47.84219193458557,14.97207260131836 61.5931875705719,14.97207260131836 70.25411057472229,4.190006732940674 "/>
         <polygon stroke="null" id="svg_20" fill="#E2E5E7" points="42.75448822975159,4.190006732940674 34.093557596206665,14.97207260131836 47.84219193458557,14.97207260131836 56.504289865493774,4.190006732940674 "/>
         <polygon stroke="null" id="svg_21" fill="#E2E5E7" points="70.25411057472229,4.190006732940674 61.5931875705719,14.97207260131836 75.34240555763245,14.97207260131836 84.00391983985901,4.190006732940674 "/>
         <polygon stroke="null" id="svg_22" fill="#E2E5E7" points="97.75372910499573,4.190006732940674 89.09280228614807,14.97207260131836 102.84203171730042,14.97207260131836 111.50297379493713,4.190006732940674 "/>
         <polygon stroke="null" id="svg_23" fill="#DF584C" points="1.3614873451542735,4.190006732940674 1.3614873451542735,14.97207260131836 6.5939271450042725,14.97207260131836 15.254858255386353,4.190006732940674 "/>
         <polygon stroke="null" id="svg_24" fill="#E2E5E7" points="15.254858255386353,4.190006732940674 6.5939271450042725,14.97207260131836 20.34375023841858,14.97207260131836 29.004682779312134,4.190006732940674 "/>
         <polygon stroke="null" id="svg_25" fill="#E2E5E7" points="180.25202775001526,4.190006732940674 171.59110856056213,14.97207260131836 185.3421003818512,14.97207260131836 194.00126481056213,4.190006732940674 "/>
         <polygon stroke="null" id="svg_26" fill="#E2E5E7" points="207.7516462802887,4.190006732940674 199.09074234962463,14.97207260131836 212.84054398536682,14.97207260131836 221.50202775001526,4.190006732940674 "/>
         <polygon stroke="null" id="svg_27" fill="#DF584C" points="111.50297379493713,4.190006732940674 102.84203171730042,14.97207260131836 116.59184098243713,14.97207260131836 125.25337815284729,4.190006732940674 "/>
         <polygon stroke="null" id="svg_28" fill="#DF584C" points="221.50202775001526,4.190006732940674 212.84054398536682,14.97207260131836 228.63851761817932,14.97207260131836 228.63851761817932,4.190006732940674 "/>
         <polygon stroke="null" id="svg_29" fill="#DF584C" points="166.50224137306213,4.190006732940674 157.841322183609,14.97207260131836 171.59110856056213,14.97207260131836 180.25202775001526,4.190006732940674 "/>
         <polygon stroke="null" id="svg_30" fill="#E2E5E7" points="125.25337815284729,4.190006732940674 116.59184098243713,14.97207260131836 130.34223771095276,14.97207260131836 139.00375199317932,4.190006732940674 "/>
         <g stroke="null" id="svg_31">
          <polygon stroke="null" id="svg_32" fill="#2D404E" points="84.00391983985901,4.190006732940674 75.34240555763245,14.97207260131836 89.09280228614807,14.97207260131836 97.75372910499573,4.190006732940674 "/>
          <polygon stroke="null" id="svg_33" fill="#2D404E" points="29.004682779312134,4.190006732940674 20.34375023841858,14.97207260131836 34.093557596206665,14.97207260131836 42.75448822975159,4.190006732940674 "/>
          <polygon stroke="null" id="svg_34" fill="#2D404E" points="194.00126481056213,4.190006732940674 185.3421003818512,14.97207260131836 199.09074234962463,14.97207260131836 207.7516462802887,4.190006732940674 "/>
          <polygon stroke="null" id="svg_35" fill="#2D404E" points="139.00375199317932,4.190006732940674 130.34223771095276,14.97207260131836 144.09145951271057,14.97207260131836 152.75242447853088,4.190006732940674 "/>
         </g>
         <polygon stroke="null" id="svg_36" fill="#E2E5E7" points="152.75242447853088,4.190006732940674 144.09145951271057,14.97207260131836 157.841322183609,14.97207260131836 166.50224137306213,4.190006732940674 "/>
        </g>
        <g stroke="null" id="svg_37">
         <polygon stroke="null" id="svg_38" fill="#DF584C" points="9.010406255722046,188.98626708984375 1.3614873451542735,198.28541564941406 1.3614873451542735,183.52304077148438 9.010406255722046,174.22479248046875 "/>
         <polygon stroke="null" id="svg_39" fill="#E2E5E7" points="9.010406255722046,203.74771118164062 1.3614873451542735,213.04603576660156 1.3614873451542735,198.28541564941406 9.010406255722046,188.98626708984375 "/>
         <polygon stroke="null" id="svg_40" fill="#E2E5E7" points="9.010406255722046,174.22479248046875 1.3614873451542735,183.52304077148438 1.3614873451542735,168.76243591308594 9.010406255722046,159.46414184570312 "/>
         <polygon stroke="null" id="svg_41" fill="#E2E5E7" points="9.010406255722046,144.70266723632812 1.3614873451542735,154.00094604492188 1.3614873451542735,139.24032592773438 9.010406255722046,129.94203186035156 "/>
         <polygon stroke="null" id="svg_42" fill="#E2E5E7" points="9.010406255722046,56.134681701660156 1.3614873451542735,65.43296813964844 1.3614873451542735,50.671485900878906 9.010406255722046,41.37319564819336 "/>
         <polygon stroke="null" id="svg_43" fill="#E2E5E7" points="9.010406255722046,26.612550735473633 1.3614873451542735,35.91083526611328 1.3614873451542735,21.150196075439453 9.010406255722046,11.85107421875 "/>
         <polygon stroke="null" id="svg_44" fill="#DF584C" points="9.010406255722046,129.94203186035156 1.3614873451542735,139.24032592773438 1.3614873451542735,124.47883605957031 9.010406255722046,115.1805419921875 "/>
         <polygon stroke="null" id="svg_45" fill="#DF584C" points="9.010406255722046,11.85107421875 1.3614873451542735,21.150196075439453 1.3614873451542735,4.190006732940674 9.010406255722046,4.190006732940674 "/>
         <polygon stroke="null" id="svg_46" fill="#DF584C" points="9.010406255722046,70.89778137207031 1.3614873451542735,80.19440460205078 1.3614873451542735,65.43296813964844 9.010406255722046,56.134681701660156 "/>
         <polygon stroke="null" id="svg_47" fill="#E2E5E7" points="9.010406255722046,115.1805419921875 1.3614873451542735,124.47883605957031 1.3614873451542735,109.71903228759766 9.010406255722046,100.41907501220703 "/>
         <g stroke="null" id="svg_48">
          <polygon stroke="null" id="svg_49" fill="#2D404E" points="9.010406255722046,159.46414184570312 1.3614873451542735,168.76243591308594 1.3614873451542735,154.00094604492188 9.010406255722046,144.70266723632812 "/>
          <polygon stroke="null" id="svg_50" fill="#2D404E" points="9.010406255722046,227.8091278076172 1.3614873451542735,227.80999755859375 1.3614873451542735,213.04603576660156 9.010406255722046,203.74771118164062 "/>
          <polygon stroke="null" id="svg_51" fill="#2D404E" points="9.010406255722046,41.37319564819336 1.3614873451542735,50.671485900878906 1.3614873451542735,35.91083526611328 9.010406255722046,26.612550735473633 "/>
          <polygon stroke="null" id="svg_52" fill="#2D404E" points="9.010406255722046,100.41907501220703 1.3614873451542735,109.71903228759766 1.3614873451542735,94.95506286621094 9.010406255722046,85.65843200683594 "/>
         </g>
         <polygon stroke="null" id="svg_53" fill="#E2E5E7" points="9.010406255722046,85.65843200683594 1.3614873451542735,94.95506286621094 1.3614873451542735,80.19440460205078 9.010406255722046,70.89778137207031 "/>
        </g>
        <g stroke="null" id="svg_54">
         <polygon stroke="null" id="svg_55" fill="#DF584C" points="58.34944748878479,227.80670166015625 49.780317544937134,217.0246124267578 63.38361573219299,217.0246124267578 71.95216965675354,227.80670166015625 "/>
         <polygon stroke="null" id="svg_56" fill="#E2E5E7" points="44.74674439430237,227.80670166015625 36.178770303726196,217.0246124267578 49.780317544937134,217.0246124267578 58.34944748878479,227.80670166015625 "/>
         <polygon stroke="null" id="svg_57" fill="#E2E5E7" points="71.95216965675354,227.80670166015625 63.38361573219299,217.0246124267578 76.9857542514801,217.0246124267578 85.55431199073792,227.80670166015625 "/>
         <polygon stroke="null" id="svg_58" fill="#E2E5E7" points="99.15701127052307,227.80670166015625 90.58847641944885,217.0246124267578 104.1905882358551,217.0246124267578 112.7585813999176,227.80670166015625 "/>
         <polygon stroke="null" id="svg_59" fill="#DF584C" points="1.3614873451542735,227.80670166015625 1.3614873451542735,217.0246124267578 8.973922967910767,217.0246124267578 17.542484521865845,227.80670166015625 "/>
         <polygon stroke="null" id="svg_60" fill="#E2E5E7" points="180.77097916603088,227.80670166015625 172.20242142677307,217.0246124267578 185.8063337802887,217.0246124267578 194.37252640724182,227.80670166015625 "/>
         <polygon stroke="null" id="svg_61" fill="#E2E5E7" points="207.97582840919495,227.80670166015625 199.40730118751526,217.0246124267578 213.01003861427307,217.0246124267578 221.57800126075745,227.80670166015625 "/>
         <polygon stroke="null" id="svg_62" fill="#DF584C" points="112.7585813999176,227.80670166015625 104.1905882358551,217.0246124267578 117.79273056983948,217.0246124267578 126.3612654209137,227.80670166015625 "/>
         <polygon stroke="null" id="svg_63" fill="#DF584C" points="221.57800126075745,227.80670166015625 213.01003861427307,217.0246124267578 228.63851761817932,217.0246124267578 228.63851761817932,227.80670166015625 "/>
         <polygon stroke="null" id="svg_64" fill="#DF584C" points="167.16825699806213,227.80670166015625 158.6002790927887,217.0246124267578 172.20242142677307,217.0246124267578 180.77097916603088,227.80670166015625 "/>
         <polygon stroke="null" id="svg_65" fill="#E2E5E7" points="126.3612654209137,227.80670166015625 117.79273056983948,217.0246124267578 131.39602494239807,217.0246124267578 139.9640028476715,227.80670166015625 "/>
         <g stroke="null" id="svg_66">
          <polygon stroke="null" id="svg_67" fill="#2D404E" points="85.55431199073792,227.80670166015625 76.9857542514801,217.0246124267578 90.58847641944885,217.0246124267578 99.15701127052307,227.80670166015625 "/>
          <polygon stroke="null" id="svg_68" fill="#2D404E" points="31.144609689712524,227.80670166015625 22.576650857925415,217.0246124267578 36.178770303726196,217.0246124267578 44.74674439430237,227.80670166015625 "/>
          <polygon stroke="null" id="svg_69" fill="#2D404E" points="194.37252640724182,227.80670166015625 185.8063337802887,217.0246124267578 199.40730118751526,217.0246124267578 207.97582840919495,227.80670166015625 "/>
          <polygon stroke="null" id="svg_70" fill="#2D404E" points="139.9640028476715,227.80670166015625 131.39602494239807,217.0246124267578 144.99754166603088,217.0246124267578 153.56614518165588,227.80670166015625 "/>
         </g>
         <polygon stroke="null" id="svg_71" fill="#E2E5E7" points="153.56614518165588,227.80670166015625 144.99754166603088,217.0246124267578 158.6002790927887,217.0246124267578 167.16825699806213,227.80670166015625 "/>
        </g>
        <g stroke="null" id="svg_72">
         <polygon stroke="null" id="svg_73" fill="#DF584C" points="220.98962235450745,188.2563934326172 228.63851761817932,197.24781799316406 228.63851761817932,182.97401428222656 220.98962235450745,173.98509216308594 "/>
         <polygon stroke="null" id="svg_74" fill="#E2E5E7" points="220.98962235450745,202.5277557373047 228.63851761817932,211.51910400390625 228.63851761817932,197.24781799316406 220.98962235450745,188.2563934326172 "/>
         <polygon stroke="null" id="svg_75" fill="#E2E5E7" points="220.98962235450745,173.98509216308594 228.63851761817932,182.97401428222656 228.63851761817932,168.7027130126953 220.98962235450745,159.71212768554688 "/>
         <polygon stroke="null" id="svg_76" fill="#E2E5E7" points="220.98962235450745,145.4391632080078 228.63851761817932,154.43057250976562 228.63851761817932,140.158447265625 220.98962235450745,131.16786193847656 "/>
         <polygon stroke="null" id="svg_77" fill="#E2E5E7" points="220.98962235450745,59.805545806884766 228.63851761817932,68.79612731933594 228.63851761817932,54.52482604980469 220.98962235450745,45.53424072265625 "/>
         <polygon stroke="null" id="svg_78" fill="#E2E5E7" points="220.98962235450745,31.26043128967285 228.63851761817932,40.25104522705078 228.63851761817932,25.979724884033203 220.98962235450745,16.98831558227539 "/>
         <polygon stroke="null" id="svg_79" fill="#DF584C" points="220.98962235450745,131.16786193847656 228.63851761817932,140.158447265625 228.63851761817932,125.88383483886719 220.98962235450745,116.8949203491211 "/>
         <polygon stroke="null" id="svg_80" fill="#DF584C" points="220.98962235450745,16.98831558227539 228.63851761817932,25.979724884033203 228.63851761817932,9.581035614013672 220.98962235450745,9.581035614013672 "/>
         <polygon stroke="null" id="svg_81" fill="#DF584C" points="220.98962235450745,74.08016204833984 228.63851761817932,83.06826782226562 228.63851761817932,68.79612731933594 220.98962235450745,59.805545806884766 "/>
         <polygon stroke="null" id="svg_82" fill="#E2E5E7" points="220.98962235450745,116.8949203491211 228.63851761817932,125.88383483886719 228.63851761817932,111.61419677734375 220.98962235450745,102.62277221679688 "/>
         <g stroke="null" id="svg_83">
          <polygon stroke="null" id="svg_84" fill="#2D404E" points="220.98962235450745,159.71212768554688 228.63851761817932,168.7027130126953 228.63851761817932,154.43057250976562 220.98962235450745,145.4391632080078 "/>
          <polygon stroke="null" id="svg_85" fill="#2D404E" points="220.98962235450745,225.7928924560547 228.63851761817932,225.7937774658203 228.63851761817932,211.51910400390625 220.98962235450745,202.5277557373047 "/>
          <polygon stroke="null" id="svg_86" fill="#2D404E" points="220.98962235450745,45.53424072265625 228.63851761817932,54.52482604980469 228.63851761817932,40.25104522705078 220.98962235450745,31.26043128967285 "/>
          <polygon stroke="null" id="svg_87" fill="#2D404E" points="220.98962235450745,102.62277221679688 228.63851761817932,111.61419677734375 228.63851761817932,97.34121704101562 220.98962235450745,88.35227966308594 "/>
         </g>
         <polygon stroke="null" id="svg_88" fill="#E2E5E7" points="220.98962235450745,88.35227966308594 228.63851761817932,97.34121704101562 228.63851761817932,83.06826782226562 220.98962235450745,74.08016204833984 "/>
        </g>
       </g>
      </g>
     </g>
    </g>
   </g>
   <desc stroke="null" transform="translate(1.3614790439605713,0) translate(-85.36148834228516,0) translate(0,-2) translate(1.86149001121521,4.190000057220459) scale(0.7171922922134399,1) translate(-1.86149001121521,-4.190000057220459) translate(2.595524311065674,4.190000057220459) scale(0.3966768980026245,1) translate(-2.595524311065674,-4.190000057220459) translate(6.543169975280762,4.190000057220459) scale(1.3870258331298828,1) translate(-6.543169975280762,-4.190000057220459) translate(0.0000042137853597523645,4.19000244140625) scale(1.1125922203063965,1) translate(-0.0000042137853597523645,-4.19000244140625) "/>
   <g stroke="null" id="svg_126">
    <g stroke="null" transform="matrix(0.7416350348526045,0,0,0.7002157144030672,-99.32965285251659,-57.354854417961874) " id="svg_120">
     <g stroke="null" id="svg_123">
      <desc stroke="null" transform="translate(0,0.00001089577745005954) translate(0.00003086178912781179,-1.4210854715202004e-14) translate(1.835780382156372,-1.4210854715202004e-14) translate(-128.0583038330078,0) translate(2.842170943040401e-14,2.85624098777771) translate(130.83712768554688,0) translate(0,-1.4210854715202004e-14) translate(1.4210854715202004e-14,-2.856262683868408) "/>
      <path stroke="null" fill-rule="nonzero" fill="#41b883" d="m160.996145,137.173699l128,220.8l128,-220.8l-51.2,0l-76.8,132.48l-77.44,-132.48l-50.56,0z" id="svg_124"/>
     </g>
     <g stroke="null" id="svg_121">
      <desc stroke="null" transform="translate(0,0.00001089577745005954) translate(0.00003086178912781179,-1.4210854715202004e-14) translate(1.835780382156372,-1.4210854715202004e-14) translate(-128.0583038330078,0) translate(2.842170943040401e-14,2.85624098777771) translate(130.83712768554688,0) translate(0,-1.4210854715202004e-14) translate(1.4210854715202004e-14,-2.856262683868408) "/>
      <path stroke="null" fill-rule="nonzero" fill="#35495e" d="m378.904135,293.109699l-88.927,-155.93639l-90.8092,154.32139l55.1887,0.496l34.8115,-59.3553l34.547,59.9783l55.189,0.496z" id="svg_122"/>
     </g>
    </g>
   </g>
  </g>
  <g id="svg_90" stroke="null"/>
  <g id="svg_91" stroke="null"/>
  <g id="svg_92" stroke="null"/>
  <g id="svg_93" stroke="null"/>
  <g id="svg_94" stroke="null"/>
  <g id="svg_95" stroke="null"/>
  <g id="svg_96" stroke="null"/>
  <g id="svg_97" stroke="null"/>
  <g id="svg_98" stroke="null"/>
  <g id="svg_99" stroke="null"/>
  <g id="svg_100" stroke="null"/>
  <g id="svg_101" stroke="null"/>
  <g id="svg_102" stroke="null"/>
  <g id="svg_103" stroke="null"/>
  <g id="svg_104" stroke="null"/>
 </g>
</svg>