<svg width="512" height="512" xmlns="http://www.w3.org/2000/svg">

 <g>
  <title>background</title>
  <rect fill="none" id="canvas_background" height="402" width="582" y="-1" x="-1"/>
 </g>
 <g>
  <title>Layer 1</title>
  <g id="svg_1">
   <g stroke="null" id="svg_8">
    <path stroke="null" id="svg_9" fill="#E2E5E7" d="m464,320.703716c0,11.654302 -9.85,21.10244 -22,21.10244l-342.277,0c-12.15,0 -22,-9.448138 -22,-21.10244l0,-216.411276c0,-11.654302 9.85,-21.10244 22,-21.10244l342.277,0c12.15,0 22,9.448138 22,21.10244l0,216.411276l0,0z"/>
    <g stroke="null" id="svg_10">
     <path stroke="null" id="svg_11" fill="#D1D5D5" d="m432.247,269.965777c0,2.348126 -2.711,4.253101 -6.056,4.253101l-118.997,0c-3.345,0 -6.056,-1.904016 -6.056,-4.253101l0,-0.161146c0,-2.346208 2.711,-4.250223 6.056,-4.250223l118.997,0c3.345,0 6.056,1.903056 6.056,4.250223l0,0.161146z"/>
     <path stroke="null" id="svg_12" fill="#D1D5D5" d="m432.247,286.283718c0,2.350044 -2.711,4.253101 -6.056,4.253101l-118.997,0c-3.345,0 -6.056,-1.902097 -6.056,-4.253101l0,-0.158268c0,-2.349085 2.711,-4.253101 6.056,-4.253101l118.997,0c3.345,0 6.056,1.903056 6.056,4.253101l0,0.158268z"/>
     <path stroke="null" id="svg_13" fill="#D1D5D5" d="m432.247,302.605496c0,2.347167 -2.711,4.250223 -6.056,4.250223l-118.997,0c-3.345,0 -6.056,-1.902097 -6.056,-4.250223l0,-0.160187c0,-2.350044 2.711,-4.25406 6.056,-4.25406l118.997,0c3.345,0 6.056,1.903056 6.056,4.25406l0,0.160187z"/>
    </g>
    <g stroke="null" id="svg_14">
     <g stroke="null" id="svg_15">
      <g stroke="null" id="svg_16">
       <g stroke="null" id="svg_17">
        <g stroke="null" id="svg_18">
         <polygon stroke="null" id="svg_19" fill="#DF584C" points="171.4429931640625,83.19000244140625 156.7209930419922,95.65962982177734 180.0919952392578,95.65962982177734 194.81199645996094,83.19000244140625 "/>
         <polygon stroke="null" id="svg_20" fill="#E2E5E7" points="148.07400512695312,83.19000244140625 133.35400390625,95.65962982177734 156.7209930419922,95.65962982177734 171.4429931640625,83.19000244140625 "/>
         <polygon stroke="null" id="svg_21" fill="#E2E5E7" points="194.81199645996094,83.19000244140625 180.0919952392578,95.65962982177734 203.4600067138672,95.65962982177734 218.18099975585938,83.19000244140625 "/>
         <polygon stroke="null" id="svg_22" fill="#E2E5E7" points="241.54998779296875,83.19000244140625 226.82998657226562,95.65962982177734 250.197998046875,95.65962982177734 264.9179992675781,83.19000244140625 "/>
         <polygon stroke="null" id="svg_23" fill="#DF584C" points="77.7229995727539,83.19000244140625 77.7229995727539,95.65962982177734 86.61599731445312,95.65962982177734 101.33599853515625,83.19000244140625 "/>
         <polygon stroke="null" id="svg_24" fill="#E2E5E7" points="101.33599853515625,83.19000244140625 86.61599731445312,95.65962982177734 109.98500061035156,95.65962982177734 124.70500183105469,83.19000244140625 "/>
         <polygon stroke="null" id="svg_25" fill="#E2E5E7" points="381.76300048828125,83.19000244140625 367.0429992675781,95.65962982177734 390.41400146484375,95.65962982177734 405.1310119628906,83.19000244140625 "/>
         <polygon stroke="null" id="svg_26" fill="#E2E5E7" points="428.5010070800781,83.19000244140625 413.781005859375,95.65962982177734 437.1499938964844,95.65962982177734 451.8710021972656,83.19000244140625 "/>
         <polygon stroke="null" id="svg_27" fill="#DF584C" points="264.9179992675781,83.19000244140625 250.197998046875,95.65962982177734 273.5669860839844,95.65962982177734 288.2879943847656,83.19000244140625 "/>
         <polygon stroke="null" id="svg_28" fill="#DF584C" points="451.8710021972656,83.19000244140625 437.1499938964844,95.65962982177734 464,95.65962982177734 464,83.19000244140625 "/>
         <polygon stroke="null" id="svg_29" fill="#DF584C" points="358.3940124511719,83.19000244140625 343.67401123046875,95.65962982177734 367.0429992675781,95.65962982177734 381.76300048828125,83.19000244140625 "/>
         <polygon stroke="null" id="svg_30" fill="#E2E5E7" points="288.2879943847656,83.19000244140625 273.5669860839844,95.65962982177734 296.93701171875,95.65962982177734 311.6579895019531,83.19000244140625 "/>
         <g stroke="null" id="svg_31">
          <polygon stroke="null" id="svg_32" fill="#2D404E" points="218.18099975585938,83.19000244140625 203.4600067138672,95.65962982177734 226.82998657226562,95.65962982177734 241.54998779296875,83.19000244140625 "/>
          <polygon stroke="null" id="svg_33" fill="#2D404E" points="124.70500183105469,83.19000244140625 109.98500061035156,95.65962982177734 133.35400390625,95.65962982177734 148.07400512695312,83.19000244140625 "/>
          <polygon stroke="null" id="svg_34" fill="#2D404E" points="405.1310119628906,83.19000244140625 390.41400146484375,95.65962982177734 413.781005859375,95.65962982177734 428.5010070800781,83.19000244140625 "/>
          <polygon stroke="null" id="svg_35" fill="#2D404E" points="311.6579895019531,83.19000244140625 296.93701171875,95.65962982177734 320.30499267578125,95.65962982177734 335.0249938964844,83.19000244140625 "/>
         </g>
         <polygon stroke="null" id="svg_36" fill="#E2E5E7" points="335.0249938964844,83.19000244140625 320.30499267578125,95.65962982177734 343.67401123046875,95.65962982177734 358.3940124511719,83.19000244140625 "/>
        </g>
        <g stroke="null" id="svg_37">
         <polygon stroke="null" id="svg_38" fill="#DF584C" points="90.72300720214844,296.9097595214844 77.7229995727539,307.66436767578125 77.7229995727539,290.5914611816406 90.72300720214844,279.837890625 "/>
         <polygon stroke="null" id="svg_39" fill="#E2E5E7" points="90.72300720214844,313.9815979003906 77.7229995727539,324.7352600097656 77.7229995727539,307.66436767578125 90.72300720214844,296.9097595214844 "/>
         <polygon stroke="null" id="svg_40" fill="#E2E5E7" points="90.72300720214844,279.837890625 77.7229995727539,290.5914611816406 77.7229995727539,273.52056884765625 90.72300720214844,262.7669677734375 "/>
         <polygon stroke="null" id="svg_41" fill="#E2E5E7" points="90.72300720214844,245.69508361816406 77.7229995727539,256.4486999511719 77.7229995727539,239.37779235839844 90.72300720214844,228.62417602539062 "/>
         <polygon stroke="null" id="svg_42" fill="#E2E5E7" points="90.72300720214844,143.2648162841797 77.7229995727539,154.0184326171875 77.7229995727539,136.94654846191406 90.72300720214844,126.19293975830078 "/>
         <polygon stroke="null" id="svg_43" fill="#E2E5E7" points="90.72300720214844,109.12202453613281 77.7229995727539,119.8756332397461 77.7229995727539,102.80472564697266 90.72300720214844,92.0501480102539 "/>
         <polygon stroke="null" id="svg_44" fill="#DF584C" points="90.72300720214844,228.62417602539062 77.7229995727539,239.37779235839844 77.7229995727539,222.305908203125 90.72300720214844,211.5522918701172 "/>
         <polygon stroke="null" id="svg_45" fill="#DF584C" points="90.72300720214844,92.0501480102539 77.7229995727539,102.80472564697266 77.7229995727539,83.19000244140625 90.72300720214844,83.19000244140625 "/>
         <polygon stroke="null" id="svg_46" fill="#DF584C" points="90.72300720214844,160.33859252929688 77.7229995727539,171.09027099609375 77.7229995727539,154.0184326171875 90.72300720214844,143.2648162841797 "/>
         <polygon stroke="null" id="svg_47" fill="#E2E5E7" points="90.72300720214844,211.5522918701172 77.7229995727539,222.305908203125 77.7229995727539,205.2359619140625 90.72300720214844,194.4804229736328 "/>
         <g stroke="null" id="svg_48">
          <polygon stroke="null" id="svg_49" fill="#2D404E" points="90.72300720214844,262.7669677734375 77.7229995727539,273.52056884765625 77.7229995727539,256.4486999511719 90.72300720214844,245.69508361816406 "/>
          <polygon stroke="null" id="svg_50" fill="#2D404E" points="90.72300720214844,341.8089904785156 77.7229995727539,341.80999755859375 77.7229995727539,324.7352600097656 90.72300720214844,313.9815979003906 "/>
          <polygon stroke="null" id="svg_51" fill="#2D404E" points="90.72300720214844,126.19293975830078 77.7229995727539,136.94654846191406 77.7229995727539,119.8756332397461 90.72300720214844,109.12202453613281 "/>
          <polygon stroke="null" id="svg_52" fill="#2D404E" points="90.72300720214844,194.4804229736328 77.7229995727539,205.2359619140625 77.7229995727539,188.1612091064453 90.72300720214844,177.40951538085938 "/>
         </g>
         <polygon stroke="null" id="svg_53" fill="#E2E5E7" points="90.72300720214844,177.40951538085938 77.7229995727539,188.1612091064453 77.7229995727539,171.09027099609375 90.72300720214844,160.33859252929688 "/>
        </g>
        <g stroke="null" id="svg_54">
         <polygon stroke="null" id="svg_55" fill="#DF584C" points="174.57899475097656,341.8061828613281 160.01499938964844,329.3365478515625 183.13499450683594,329.3365478515625 197.697998046875,341.8061828613281 "/>
         <polygon stroke="null" id="svg_56" fill="#E2E5E7" points="151.4600067138672,341.8061828613281 136.8979949951172,329.3365478515625 160.01499938964844,329.3365478515625 174.57899475097656,341.8061828613281 "/>
         <polygon stroke="null" id="svg_57" fill="#E2E5E7" points="197.697998046875,341.8061828613281 183.13499450683594,329.3365478515625 206.2530059814453,329.3365478515625 220.81600952148438,341.8061828613281 "/>
         <polygon stroke="null" id="svg_58" fill="#E2E5E7" points="243.93499755859375,341.8061828613281 229.37200927734375,329.3365478515625 252.489990234375,329.3365478515625 267.052001953125,341.8061828613281 "/>
         <polygon stroke="null" id="svg_59" fill="#DF584C" points="77.7229995727539,341.8061828613281 77.7229995727539,329.3365478515625 90.66099548339844,329.3365478515625 105.2239990234375,341.8061828613281 "/>
         <polygon stroke="null" id="svg_60" fill="#E2E5E7" points="382.6449890136719,341.8061828613281 368.0820007324219,329.3365478515625 391.2030029296875,329.3365478515625 405.7619934082031,341.8061828613281 "/>
         <polygon stroke="null" id="svg_61" fill="#E2E5E7" points="428.8819885253906,341.8061828613281 414.3190002441406,329.3365478515625 437.43798828125,329.3365478515625 452,341.8061828613281 "/>
         <polygon stroke="null" id="svg_62" fill="#DF584C" points="267.052001953125,341.8061828613281 252.489990234375,329.3365478515625 275.6080017089844,329.3365478515625 290.1709899902344,341.8061828613281 "/>
         <polygon stroke="null" id="svg_63" fill="#DF584C" points="452,341.8061828613281 437.43798828125,329.3365478515625 464,329.3365478515625 464,341.8061828613281 "/>
         <polygon stroke="null" id="svg_64" fill="#DF584C" points="359.5260009765625,341.8061828613281 344.9639892578125,329.3365478515625 368.0820007324219,329.3365478515625 382.6449890136719,341.8061828613281 "/>
         <polygon stroke="null" id="svg_65" fill="#E2E5E7" points="290.1709899902344,341.8061828613281 275.6080017089844,329.3365478515625 298.7279968261719,329.3365478515625 313.2900085449219,341.8061828613281 "/>
         <g stroke="null" id="svg_66">
          <polygon stroke="null" id="svg_67" fill="#2D404E" points="220.81600952148438,341.8061828613281 206.2530059814453,329.3365478515625 229.37200927734375,329.3365478515625 243.93499755859375,341.8061828613281 "/>
          <polygon stroke="null" id="svg_68" fill="#2D404E" points="128.3419952392578,341.8061828613281 113.77999877929688,329.3365478515625 136.8979949951172,329.3365478515625 151.4600067138672,341.8061828613281 "/>
          <polygon stroke="null" id="svg_69" fill="#2D404E" points="405.7619934082031,341.8061828613281 391.2030029296875,329.3365478515625 414.3190002441406,329.3365478515625 428.8819885253906,341.8061828613281 "/>
          <polygon stroke="null" id="svg_70" fill="#2D404E" points="313.2900085449219,341.8061828613281 298.7279968261719,329.3365478515625 321.8450012207031,329.3365478515625 336.4079895019531,341.8061828613281 "/>
         </g>
         <polygon stroke="null" id="svg_71" fill="#E2E5E7" points="336.4079895019531,341.8061828613281 321.8450012207031,329.3365478515625 344.9639892578125,329.3365478515625 359.5260009765625,341.8061828613281 "/>
        </g>
        <g stroke="null" id="svg_72">
         <polygon stroke="null" id="svg_73" fill="#DF584C" points="451,296.0656433105469 464,306.46435546875 464,289.95648193359375 451,279.5606689453125 "/>
         <polygon stroke="null" id="svg_74" fill="#E2E5E7" points="451,312.5706787109375 464,322.9693298339844 464,306.46435546875 451,296.0656433105469 "/>
         <polygon stroke="null" id="svg_75" fill="#E2E5E7" points="451,279.5606689453125 464,289.95648193359375 464,273.4515075683594 451,263.05377197265625 "/>
         <polygon stroke="null" id="svg_76" fill="#E2E5E7" points="451,246.54685974121094 464,256.945556640625 464,240.4396209716797 451,230.0418701171875 "/>
         <polygon stroke="null" id="svg_77" fill="#E2E5E7" points="451,147.51023864746094 464,157.90798950195312 464,141.4029998779297 451,131.0052490234375 "/>
         <polygon stroke="null" id="svg_78" fill="#E2E5E7" points="451,114.49736785888672 464,124.8951416015625 464,108.39015197753906 451,97.99144744873047 "/>
         <polygon stroke="null" id="svg_79" fill="#DF584C" points="451,230.0418701171875 464,240.4396209716797 464,223.93080139160156 451,213.5349884033203 "/>
         <polygon stroke="null" id="svg_80" fill="#DF584C" points="451,97.99144744873047 464,108.39015197753906 464,89.42481231689453 451,89.42481231689453 "/>
         <polygon stroke="null" id="svg_81" fill="#DF584C" points="451,164.01905822753906 464,174.4139404296875 464,157.90798950195312 451,147.51023864746094 "/>
         <polygon stroke="null" id="svg_82" fill="#E2E5E7" points="451,213.5349884033203 464,223.93080139160156 464,207.42774963378906 451,197.02903747558594 "/>
         <g stroke="null" id="svg_83">
          <polygon stroke="null" id="svg_84" fill="#2D404E" points="451,263.05377197265625 464,273.4515075683594 464,256.945556640625 451,246.54685974121094 "/>
          <polygon stroke="null" id="svg_85" fill="#2D404E" points="451,339.4772033691406 464,339.47821044921875 464,322.9693298339844 451,312.5706787109375 "/>
          <polygon stroke="null" id="svg_86" fill="#2D404E" points="451,131.0052490234375 464,141.4029998779297 464,124.8951416015625 451,114.49736785888672 "/>
          <polygon stroke="null" id="svg_87" fill="#2D404E" points="451,197.02903747558594 464,207.42774963378906 464,190.9208221435547 451,180.5249786376953 "/>
         </g>
         <polygon stroke="null" id="svg_88" fill="#E2E5E7" points="451,180.5249786376953 464,190.9208221435547 464,174.4139404296875 451,164.01905822753906 "/>
        </g>
       </g>
      </g>
     </g>
    </g>
    <path stroke="null" id="svg_89" fill="#D1D5D5" d="m426.58,177.055571c0,6.016114 -5.1,10.893655 -11.391,10.893655l-40.34,0c-6.291,0 -11.391,-4.877541 -11.391,-10.893655l0,-47.669452c0,-6.016114 5.1,-10.893655 11.391,-10.893655l40.34,0c6.291,0 11.391,4.877541 11.391,10.893655l0,47.669452z"/>
   </g>
   <desc transform="translate(-1,0) matrix(0.4444444709353981,0,0,0.4444444709353981,0,0) "/>
   <g stroke="null" id="svg_126">
    <g stroke="null" transform="matrix(0.7881945708157628,0,0,0.7705309607248392,-91.48906080999998,-61.292478936532405) " id="svg_120">
     <g stroke="null" id="svg_123">
      <desc stroke="null" transform="translate(1.2687222957611084,-1.4210854715202004e-14) translate(1.2687222957611084,-1.4210854715202004e-14) translate(0,-1.2978063821792603) translate(0,-1.2978063821792603) translate(0,-1.2978063821792603) translate(-1.2687222957611084,-1.4210854715202004e-14) translate(1.2261838912963867,-1.4210854715202004e-14) translate(1.2261838912963867,-1.4210854715202004e-14) translate(1.2261838912963867,-1.4210854715202004e-14) translate(0,1.2326022386550903) translate(0,1.2326022386550903) translate(0,1.2326022386550903) translate(0,1.2326022386550903) translate(-1.2261838912963867,-1.4210854715202004e-14) translate(-1.2261838912963867,-1.4210854715202004e-14) translate(-1.2261838912963867,-1.4210854715202004e-14) translate(-1.2261838912963867,-1.4210854715202004e-14) translate(2.4523677825927734,-6.163011074066162) translate(-1.2261838912963867,-1.4210854715202004e-14) translate(0,-9.860817909240723) translate(4.904735565185547,-4.930408954620361) translate(-1.2261838912963867,1.4210854715202004e-14) translate(-1.2261838912963867,1.4210854715202004e-14) translate(-1.4210854715202004e-14,8.348583221435547) translate(-6.312327861785889,-1.4210854715202004e-14) translate(7.967721939086914,-12.535965919494629) translate(-30.98288345336914,-19.119014739990234) translate(-175.49998474121094,-175.49998474121094) translate(447.9999694824219,0) translate(0,465.60015869140625) "/>
      <path fill-rule="nonzero" fill="#41b883" d="m246.893585,246.876528l128,220.8l128,-220.8l-51.2,0l-76.8,132.48l-77.44,-132.48l-50.56,0z" id="svg_124"/>
     </g>
     <g stroke="null" id="svg_121">
      <desc stroke="null" transform="translate(1.2687222957611084,-1.4210854715202004e-14) translate(1.2687222957611084,-1.4210854715202004e-14) translate(0,-1.2978063821792603) translate(0,-1.2978063821792603) translate(0,-1.2978063821792603) translate(-1.2687222957611084,-1.4210854715202004e-14) translate(1.2261838912963867,-1.4210854715202004e-14) translate(1.2261838912963867,-1.4210854715202004e-14) translate(1.2261838912963867,-1.4210854715202004e-14) translate(0,1.2326022386550903) translate(0,1.2326022386550903) translate(0,1.2326022386550903) translate(0,1.2326022386550903) translate(-1.2261838912963867,-1.4210854715202004e-14) translate(-1.2261838912963867,-1.4210854715202004e-14) translate(-1.2261838912963867,-1.4210854715202004e-14) translate(-1.2261838912963867,-1.4210854715202004e-14) translate(2.4523677825927734,-6.163011074066162) translate(-1.2261838912963867,-1.4210854715202004e-14) translate(0,-9.860817909240723) translate(4.904735565185547,-4.930408954620361) translate(-1.2261838912963867,1.4210854715202004e-14) translate(-1.2261838912963867,1.4210854715202004e-14) translate(-1.4210854715202004e-14,8.348583221435547) translate(-6.312327861785889,-1.4210854715202004e-14) translate(7.967721939086914,-12.535965919494629) translate(-30.98288345336914,-19.119014739990234) translate(-175.49998474121094,-175.49998474121094) translate(447.9999694824219,0) translate(0,465.60015869140625) "/>
      <path fill-rule="nonzero" fill="#35495e" d="m464.801585,402.812528l-88.927,-155.93639l-90.8092,154.32139l55.1887,0.496l34.8115,-59.3553l34.547,59.9783l55.189,0.496z" id="svg_122"/>
     </g>
    </g>
   </g>
  </g>
  <g id="svg_90"/>
  <g id="svg_91"/>
  <g id="svg_92"/>
  <g id="svg_93"/>
  <g id="svg_94"/>
  <g id="svg_95"/>
  <g id="svg_96"/>
  <g id="svg_97"/>
  <g id="svg_98"/>
  <g id="svg_99"/>
  <g id="svg_100"/>
  <g id="svg_101"/>
  <g id="svg_102"/>
  <g id="svg_103"/>
  <g id="svg_104"/>
 </g>
</svg>